<svg width="26" height="26" viewBox="0 0 26 26" fill="none" xmlns="http://www.w3.org/2000/svg">
<g id="entypo-social:facebook">
<path id="Vector" d="M22.0998 1.30005H3.8998C2.4698 1.30005 1.2998 2.47005 1.2998 3.90005V22.1C1.2998 23.5313 2.4698 24.7 3.8998 24.7H12.9998V15.6H10.3998V12.3825H12.9998V9.71755C12.9998 6.90435 14.5754 4.92835 17.8956 4.92835L20.2395 4.93095V8.31745H18.6834C17.3912 8.31745 16.8998 9.28725 16.8998 10.1868V12.3838H20.2382L19.4998 15.6H16.8998V24.7H22.0998C23.5298 24.7 24.6998 23.5313 24.6998 22.1V3.90005C24.6998 2.47005 23.5298 1.30005 22.0998 1.30005Z" fill="#EF9E00"/>
</g>
</svg>
