<svg width="24" height="28" viewBox="0 0 24 28" fill="none" xmlns="http://www.w3.org/2000/svg">
<g id="fa-brands:twitter-square">
<path id="Vector" d="M21.4286 1.71436H2.57143C1.15179 1.71436 0 2.86614 0 4.28578V23.1429C0 24.5626 1.15179 25.7144 2.57143 25.7144H21.4286C22.8482 25.7144 24 24.5626 24 23.1429V4.28578C24 2.86614 22.8482 1.71436 21.4286 1.71436ZM18.8089 10.2215C18.8196 10.3715 18.8196 10.5269 18.8196 10.6769C18.8196 15.3215 15.2839 20.6733 8.82321 20.6733C6.83036 20.6733 4.98214 20.0947 3.42857 19.0983C3.7125 19.1304 3.98571 19.1411 4.275 19.1411C5.91964 19.1411 7.43036 18.584 8.63571 17.6411C7.09286 17.609 5.79643 16.5965 5.35179 15.2036C5.89286 15.284 6.38036 15.284 6.9375 15.1394C5.33036 14.8126 4.125 13.3983 4.125 11.6894V11.6465C4.59107 11.909 5.1375 12.0697 5.71071 12.0911C5.2288 11.7706 4.83374 11.3357 4.56079 10.8253C4.28784 10.3149 4.14548 9.74493 4.14643 9.16614C4.14643 8.51257 4.31786 7.91257 4.62321 7.39293C6.35357 9.52507 8.95179 10.9179 11.8661 11.0679C11.3679 8.684 13.1518 6.75007 15.2946 6.75007C16.3071 6.75007 17.2179 7.17328 17.8607 7.859C18.6536 7.709 19.4143 7.41436 20.0893 7.01257C19.8268 7.82686 19.275 8.51257 18.5464 8.9465C19.2536 8.8715 19.9393 8.67328 20.5714 8.40007C20.0946 9.10186 19.4946 9.72328 18.8089 10.2215Z" fill="#9BA4B4"/>
</g>
</svg>
