<svg width="24" height="28" viewBox="0 0 24 28" fill="none" xmlns="http://www.w3.org/2000/svg">
<g id="fa6-brands:square-instagram">
<path id="Vector" d="M12 10.8569C11.4349 10.8571 10.8825 11.0248 10.4128 11.339C9.94298 11.6531 9.57689 12.0994 9.36078 12.6216C9.14467 13.1437 9.08823 13.7183 9.19861 14.2725C9.30899 14.8267 9.58122 15.3358 9.98089 15.7353C10.3806 16.1348 10.8897 16.4069 11.444 16.517C11.9983 16.6272 12.5728 16.5705 13.0948 16.3542C13.6169 16.1379 14.0631 15.7717 14.3771 15.3018C14.691 14.8319 14.8586 14.2795 14.8586 13.7144C14.858 12.9565 14.5566 12.2298 14.0206 11.694C13.4846 11.1583 12.7579 10.8571 12 10.8569ZM18.6809 8.66043C18.5354 8.29177 18.3158 7.95694 18.0355 7.6767C17.7553 7.39646 17.4204 7.17679 17.0518 7.03132C15.9268 6.58721 13.2482 6.68686 12 6.68686C10.7518 6.68686 8.07589 6.58346 6.94768 7.03132C6.57902 7.17679 6.24419 7.39646 5.96395 7.6767C5.68371 7.95694 5.46404 8.29177 5.31857 8.66043C4.875 9.78543 4.97411 12.4667 4.97411 13.7138C4.97411 14.961 4.875 17.639 5.32071 18.7677C5.46618 19.1364 5.68585 19.4712 5.96609 19.7515C6.24633 20.0317 6.58117 20.2514 6.94982 20.3969C8.07482 20.841 10.7534 20.7413 12.0021 20.7413C13.2509 20.7413 15.9257 20.8447 17.0539 20.3969C17.4226 20.2514 17.7574 20.0317 18.0377 19.7515C18.3179 19.4712 18.5376 19.1364 18.683 18.7677C19.1304 17.6427 19.0275 14.9615 19.0275 13.7144C19.0275 12.4672 19.1304 9.78971 18.683 8.66096L18.6809 8.66043ZM12 18.1072C11.1312 18.1072 10.2819 17.8496 9.55946 17.3669C8.83706 16.8842 8.27401 16.1981 7.94153 15.3954C7.60904 14.5927 7.52205 13.7095 7.69155 12.8574C7.86105 12.0052 8.27943 11.2225 8.89378 10.6081C9.50813 9.99378 10.2909 9.57541 11.143 9.40591C11.9951 9.23641 12.8784 9.3234 13.6811 9.65588C14.4838 9.98837 15.1698 10.5514 15.6525 11.2738C16.1352 11.9962 16.3929 12.8455 16.3929 13.7144C16.3936 14.2914 16.2804 14.863 16.0599 15.3963C15.8394 15.9295 15.5158 16.4141 15.1078 16.8221C14.6997 17.2302 14.2152 17.5537 13.6819 17.7743C13.1486 17.9948 12.5771 18.1079 12 18.1072ZM16.5739 10.1626C16.3711 10.1627 16.1728 10.1026 16.0041 9.99003C15.8354 9.87742 15.7039 9.71732 15.6262 9.52997C15.5486 9.34262 15.5282 9.13644 15.5677 8.9375C15.6072 8.73857 15.7048 8.55582 15.8482 8.41237C15.9915 8.26891 16.1742 8.1712 16.3732 8.1316C16.5721 8.09199 16.7783 8.11226 16.9657 8.18986C17.153 8.26745 17.3132 8.39887 17.4259 8.5675C17.5386 8.73613 17.5988 8.93439 17.5988 9.13721C17.5993 9.2719 17.5733 9.40537 17.5221 9.52997C17.471 9.65457 17.3958 9.76785 17.3008 9.86332C17.2058 9.95878 17.0928 10.0345 16.9685 10.0863C16.8441 10.138 16.7108 10.1646 16.5761 10.1647L16.5739 10.1626ZM21.4286 1.71436H2.57143C1.88944 1.71436 1.23539 1.98527 0.753154 2.46751C0.270918 2.94975 0 3.6038 0 4.28578L0 23.1429C0 23.8249 0.270918 24.479 0.753154 24.9612C1.23539 25.4434 1.88944 25.7144 2.57143 25.7144H21.4286C22.1106 25.7144 22.7646 25.4434 23.2468 24.9612C23.7291 24.479 24 23.8249 24 23.1429V4.28578C24 3.6038 23.7291 2.94975 23.2468 2.46751C22.7646 1.98527 22.1106 1.71436 21.4286 1.71436ZM20.5114 17.2501C20.4423 18.6231 20.1289 19.8397 19.1266 20.8394C18.1243 21.839 16.9088 22.1588 15.5373 22.2242C14.1225 22.304 9.88071 22.304 8.46589 22.2242C7.09286 22.1551 5.88054 21.8411 4.87661 20.8394C3.87268 19.8376 3.55714 18.6204 3.49179 17.2501C3.41196 15.8347 3.41196 11.5924 3.49179 10.1786C3.56089 8.80561 3.87054 7.589 4.87661 6.58936C5.88268 5.58971 7.09821 5.27364 8.46589 5.20828C9.88071 5.12846 14.1225 5.12846 15.5373 5.20828C16.9104 5.27739 18.1264 5.59132 19.1266 6.59311C20.1268 7.59489 20.4461 8.81203 20.5114 10.1851C20.5913 11.5951 20.5913 15.8336 20.5114 17.2501Z" fill="#9BA4B4"/>
</g>
</svg>
