<?xml version="1.0" ?><!-- Uploaded to: SVG Repo, www.svgrepo.com, Generator: SVG Repo Mixer Tools -->
<svg fill="#000000" width="28px" height="28px" viewBox="0 0 48 48" data-name="Layer 1" id="Layer_1" xmlns="http://www.w3.org/2000/svg"><title/><path d="M24,33a8,8,0,0,0,8-8V18.83l8.41-8.41a2,2,0,0,0-2.83-2.83L32,13.17V9A8,8,0,0,0,16,9V25a7.94,7.94,0,0,0,.77,3.4l-1.49,1.49A9.93,9.93,0,0,1,14,25a2,2,0,0,0-4,0,13.92,13.92,0,0,0,2.38,7.79L7.59,37.59a2,2,0,1,0,2.83,2.83l4.65-4.65A13.94,13.94,0,0,0,22,38.84V43H21a2,2,0,0,0,0,4h6a2,2,0,0,0,0-4H26V38.84A14,14,0,0,0,38,25a2,2,0,0,0-4,0,10,10,0,0,1-16.09,7.92l1.43-1.43A8,8,0,0,0,24,33Zm4-8a4,4,0,0,1-4,4,4,4,0,0,1-1.75-.42L28,22.83Zm-8,0V9a4,4,0,0,1,8,0v8.17l-8,8C20,25.1,20,25.05,20,25Z"/></svg>